<?xml version="1.0" encoding="UTF-8"?>
<svg width="30px" height="30px" viewBox="0 0 30 30" version="1.1" xmlns="http://www.w3.org/2000/svg" xmlns:xlink="http://www.w3.org/1999/xlink">
    <!-- Generator: Sketch 47.1 (45422) - http://www.bohemiancoding.com/sketch -->
    <title>Rotate_30</title>
    <desc>Created with Sketch.</desc>
    <defs></defs>
    <g id="Symbols" stroke="none" stroke-width="1" fill="none" fill-rule="evenodd">
        <g id="Rotate_30" fill="#000000">
            <path d="M5,21 L5,5 L15,5 L15,21 L5,21 Z M6,20 L14,20 L14,6 L6,6 L6,20 Z" id="Fill-1"></path>
            <path d="M21.5087723,11.5021788 L19.5021788,11.5021788 L22.0021788,14.0021788 L24.5021788,11.5021788 L22.5087275,11.5021788 C22.4978731,9.84340143 22.1242055,8.5463217 21.3693858,7.62098634 C20.4931528,6.54681018 19.1901988,6.00954611 17.5043625,6.00218361 L17.0043672,6 L17,6.99999046 L17.4999952,7.00217408 C18.9042519,7.00830684 19.9211396,7.42761344 20.5944965,8.25308336 C21.187919,8.98056144 21.4986511,10.0603208 21.5087723,11.5021788 Z" id="Combined-Shape"></path>
            <path d="M12,17 L12,16 L13,16 L13,17 L12,17 Z M12,25 L12,24 L13,24 L13,25 L12,25 Z M20,17 L20,16 L21,16 L21,17 L20,17 Z M20,25 L20,24 L21,24 L21,25 L20,25 Z M16,17 L16,16 L17,16 L17,17 L16,17 Z M16,25 L16,24 L17,24 L17,25 L16,25 Z M24,17 L24,16 L25,16 L25,17 L24,17 Z M24,19 L24,18 L25,18 L25,19 L24,19 Z M10,19 L10,18 L11,18 L11,19 L10,19 Z M24,21 L24,20 L25,20 L25,21 L24,21 Z M10,21 L10,20 L11,20 L11,21 L10,21 Z M24,23 L24,22 L25,22 L25,23 L24,23 Z M10,23 L10,22 L11,22 L11,23 L10,23 Z M24,25 L24,24 L25,24 L25,25 L24,25 Z M10,25 L10,24 L11,24 L11,25 L10,25 Z M10,16 L11,16 L11,17 L10,17 L10,16 Z M18,16 L19,16 L19,17 L18,17 L18,16 Z M18,24 L19,24 L19,25 L18,25 L18,24 Z M14,16 L15,16 L15,17 L14,17 L14,16 Z M14,24 L15,24 L15,25 L14,25 L14,24 Z M22,16 L23,16 L23,17 L22,17 L22,16 Z M22,24 L23,24 L23,25 L22,25 L22,24 Z" id="Combined-Shape"></path>
        </g>
    </g>
</svg>